<?xml version="1.0" encoding="utf-8"?>
<!-- Generator: Adobe Illustrator 27.0.0, SVG Export Plug-In . SVG Version: 6.00 Build 0)  -->
<svg version="1.1" id="Layer_1" xmlns="http://www.w3.org/2000/svg" xmlns:xlink="http://www.w3.org/1999/xlink" x="0px" y="0px"
	 viewBox="0 0 105.1 105.1" style="enable-background:new 0 0 105.1 105.1;" xml:space="preserve">
<style type="text/css">
	.st0{fill:none;}
	.st1{fill:url(#SVGID_1_);}
	
		.st2{clip-path:url(#SVGID_00000083787974018271267700000004143299798148211378_);fill:none;stroke:#7E9185;stroke-width:0.5;stroke-miterlimit:10;}
	.st3{clip-path:url(#SVGID_00000083787974018271267700000004143299798148211378_);fill:#CFC383;}
	.st4{fill:url(#SVGID_00000003786899099423313140000011042005799095596946_);}
	.st5{fill:none;stroke:#CC3333;stroke-width:0.5;stroke-miterlimit:10;}
	.st6{fill:none;stroke:#CC3333;stroke-width:0.75;stroke-miterlimit:10;}
	.st7{clip-path:url(#SVGID_00000038399751965630906210000015852022185914787489_);}
	.st8{fill:url(#SVGID_00000115479229904178326430000017221200732804041892_);}
	.st9{fill:url(#SVGID_00000131338229337895870540000008772216578365276075_);}
	.st10{fill:url(#SVGID_00000101092119228920409740000016450051865624231831_);}
	.st11{fill:none;stroke:#247138;stroke-width:0.2;stroke-miterlimit:10;}
	
		.st12{fill:url(#SVGID_00000092456702074148408500000004614664754204185755_);stroke:#247138;stroke-width:0.1;stroke-miterlimit:10;}
	.st13{fill:none;stroke:#B2DAA8;stroke-width:0.1;stroke-miterlimit:10;}
	
		.st14{fill:url(#SVGID_00000158733043723518631320000007044413869062910094_);stroke:#247138;stroke-width:0.1;stroke-miterlimit:10;}
	
		.st15{fill:url(#SVGID_00000179634703829233975680000014901405909789369775_);stroke:#247138;stroke-width:0.1;stroke-miterlimit:10;}
	
		.st16{fill:url(#SVGID_00000120518934216327544650000002452092515726164366_);stroke:#247138;stroke-width:0.1;stroke-miterlimit:10;}
	
		.st17{fill:url(#SVGID_00000164489570861138984690000005643815965396124570_);stroke:#247138;stroke-width:0.1;stroke-miterlimit:10;}
	
		.st18{fill:url(#SVGID_00000133497548746751034220000018207787015188060550_);stroke:#247138;stroke-width:0.1;stroke-miterlimit:10;}
	
		.st19{fill:url(#SVGID_00000100356191675367695370000013879395711075089289_);stroke:#247138;stroke-width:0.1;stroke-miterlimit:10;}
	
		.st20{fill:url(#SVGID_00000023266234213170980990000005989217658035218061_);stroke:#247138;stroke-width:0.1;stroke-miterlimit:10;}
	.st21{fill:url(#SVGID_00000091717482854329372220000009265920561846886845_);}
	.st22{fill:url(#SVGID_00000044158876895879045300000018218970602322745477_);}
	
		.st23{fill:url(#SVGID_00000030452936637201566310000007295197154789637776_);stroke:#247138;stroke-width:0.1;stroke-miterlimit:10;}
	
		.st24{fill:url(#SVGID_00000127038198711579054950000017063471084906547850_);stroke:#247138;stroke-width:0.1;stroke-miterlimit:10;}
	
		.st25{fill:url(#SVGID_00000132080062738038285690000001229840995009084591_);stroke:#247138;stroke-width:0.1;stroke-miterlimit:10;}
	
		.st26{fill:url(#SVGID_00000173849328635230949510000008033438223518491319_);stroke:#247138;stroke-width:0.1;stroke-miterlimit:10;}
	
		.st27{fill:url(#SVGID_00000080206174533010692650000001106898497912212913_);stroke:#247138;stroke-width:0.1;stroke-miterlimit:10;}
	
		.st28{fill:url(#SVGID_00000008842114109058729760000012284976206816371356_);stroke:#247138;stroke-width:0.1;stroke-miterlimit:10;}
	
		.st29{fill:url(#SVGID_00000080175549040015997890000008851799336717375881_);stroke:#247138;stroke-width:0.1;stroke-miterlimit:10;}
	
		.st30{fill:url(#SVGID_00000134223636399151065870000010701116852956949916_);stroke:#247138;stroke-width:0.1;stroke-miterlimit:10;}
	
		.st31{fill:url(#SVGID_00000110432327455980481940000004302359584504717732_);stroke:#247138;stroke-width:0.1;stroke-miterlimit:10;}
	.st32{fill:url(#SVGID_00000034055791905119030120000014965624837046065810_);}
	
		.st33{fill:url(#SVGID_00000043457308715076565320000013779148186835020710_);stroke:#247138;stroke-width:0.1;stroke-miterlimit:10;}
	
		.st34{fill:url(#SVGID_00000020396026080899064590000017173171345242711692_);stroke:#247138;stroke-width:0.1;stroke-miterlimit:10;}
	
		.st35{fill:url(#SVGID_00000041293573357042659690000015014804771868777867_);stroke:#247138;stroke-width:0.1;stroke-miterlimit:10;}
	
		.st36{fill:url(#SVGID_00000140008856143583123400000004642159361124114344_);stroke:#247138;stroke-width:0.1;stroke-miterlimit:10;}
	.st37{fill:url(#SVGID_00000176034115369960872860000001642642396580826037_);}
	.st38{font-family:'Whitney-Medium';}
	.st39{font-size:14.5012px;}
	.st40{font-family:'XITS';}
	.st41{font-size:20px;}
	.st42{font-family:'XITSMath';}
	.st43{font-size:14px;}
	.st44{font-size:8px;}
	.st45{font-family:'Helvetica-Oblique';}
	.st46{font-size:5px;}
	.st47{font-size:12px;}
</style>
<rect class="st0" width="105.1" height="105.1"/>
<linearGradient id="SVGID_1_" gradientUnits="userSpaceOnUse" x1="18.7103" y1="87.0018" x2="87.0116" y2="18.7005" gradientTransform="matrix(0.866 0.5 -0.5 0.866 33.4976 -19.3127)">
	<stop  offset="0" style="stop-color:#0A763C;stop-opacity:0.33"/>
	<stop  offset="1" style="stop-color:#9DC1A1;stop-opacity:0.2"/>
</linearGradient>
<polygon class="st1" points="9.5,77.9 52.9,102.9 96.2,77.9 96.2,27.9 52.9,2.9 9.5,27.9 "/>
<g>
	<defs>
		<polygon id="SVGID_00000026848725861569704350000005436274894386342571_" points="9.6,77.9 52.9,102.9 96.2,77.9 96.2,27.9 
			52.9,2.9 9.6,27.9 		"/>
	</defs>
	<clipPath id="SVGID_00000023245729782821585250000000019292390175493530_">
		<use xlink:href="#SVGID_00000026848725861569704350000005436274894386342571_"  style="overflow:visible;"/>
	</clipPath>
	
		<line style="clip-path:url(#SVGID_00000023245729782821585250000000019292390175493530_);fill:none;stroke:#7E9185;stroke-width:0.5;stroke-miterlimit:10;" x1="6.5" y1="46.2" x2="99.1" y2="46.2"/>
	<path style="clip-path:url(#SVGID_00000023245729782821585250000000019292390175493530_);fill:#CFC383;" d="M-74.9,112
		c1.7-0.9,99-39.3,100.7-40.1c1.6-0.8,3.3-1.6,4.8-2.6c2.5-1.5,4.8-3.4,7-5.4c1.8-1.5,3.5-3.2,4.4-5.3c0.5-1.4,0.7-2.9,0.7-4.4
		c0-1.2,0-2.5,0.6-3.5c0.7-1.2,2.2-1.7,3.5-2.2c2-0.7,4.1-1.4,6.1-2.1h6.4c0.5,1.2-0.7,2.3-1.4,3.4c-0.7,1.1-0.7,2.5-0.6,3.9
		c0.4,4,2.7,7.6,5.6,10.3c2.9,2.8,6.4,4.8,9.8,6.9c3,1.8,74.8,37.5,77.8,39.2"/>
</g>
<g>
	<path d="M9.9,77.6c2.2-0.7,4.4-1.5,6.6-2.4c2.2-0.8,4.4-1.7,6.6-2.6c1.1-0.5,2.2-0.9,3.2-1.4c1.1-0.5,2.1-1.1,3.1-1.6
		c2-1.1,4-2.5,5.8-4c1.8-1.5,3.7-3,5.2-4.8c0.7-0.9,1.3-1.9,1.6-3c0.3-1.1,0.4-2.3,0.4-3.5c0-1.2,0-2.4,0.6-3.5
		c0.7-1.1,1.8-1.6,2.9-2l6.7-2.2L46.1,49c-1.1,0.4-2.2,1-2.8,2c-0.6,1-0.5,2.2-0.5,3.4c0,1.2-0.1,2.4-0.4,3.6
		c-0.3,1.2-0.9,2.3-1.6,3.2c-1.5,1.9-3.4,3.4-5.1,5c-1.8,1.5-3.7,3-5.8,4.2c-1,0.6-2.1,1.2-3.1,1.7c-1,0.6-2.2,1-3.3,1.5
		c-2.2,0.9-4.4,1.8-6.6,2.6c-2.2,0.8-4.4,1.7-6.7,2.4L9.9,77.6z"/>
</g>
<g>
	<path d="M91.2,80.9c-3.8-2.1-7.9-3.9-11.8-5.9c-2-1-4-1.9-5.9-3c-2-1.1-3.8-2.2-5.7-3.5c-1.8-1.2-3.6-2.6-5.2-4.1
		c-1.6-1.6-3-3.3-4-5.3c-1-2-1.6-4.2-1.6-6.4c0-1.1,0.3-2.2,1-3.1c0.3-0.5,0.7-0.9,0.9-1.4c0.3-0.5,0.4-1.1,0.2-1.6
		c0.2,0.5,0.1,1.1-0.2,1.6c-0.3,0.5-0.6,0.9-0.9,1.4c-0.6,0.9-0.9,2-0.9,3.1c0,2.2,0.7,4.3,1.7,6.3c2.1,3.9,5.6,6.8,9.3,9.1
		c1.9,1.2,3.8,2.3,5.7,3.3c1.9,1,3.9,1.9,5.9,2.9c4,1.9,8,3.7,11.9,5.8L91.2,80.9z"/>
</g>
<g>
	<g>
		
			<image style="overflow:visible;" width="89.6" height="103.5" xlink:href="C1D97EDC.png"  transform="matrix(1 0 0 1 7.9214 1.082)"/>
	</g>
</g>
<text transform="matrix(1 0 0 1 23.4028 37.1187)" class="st38 st39">EDN Suite</text>
<text transform="matrix(1 0 0 1 45.562 92.5588)" class="st40 st41">Δ</text>
<text transform="matrix(1 0 0 1 60.13 80.6997)" class="st42 st43">∇</text>
<text transform="matrix(1 0 0 1 52.1767 49.5827)" class="st40 st44">_</text>
<text transform="matrix(1 0 0 1 53.9847 63.5274)" class="st40 st44">^</text>
<text transform="matrix(1 0 0 1 43.9855 57.7614)" class="st45 st46">circ</text>
<text transform="matrix(1 0 0 1 36.6922 73.6481)" class="st45 st47">E</text>
</svg>
